PathFileType	4	(X/Y/Z)	/Users/itak/Documents/Research/Walk-IL/dataset/trc/00061_00006.trc
DataRate	CameraRate	NumFrames	NumMarkers	Units	OrigDataRate	OrigDataStartFrame	OrigNumFrames
100.000000	100.000000	4	53	mm	100.000000	0	793
Frame#	Time	RPSI			LPSI			L3			STRN			T10			C7			CLAV			RBAK			LBAK			LSHO			LUPA			LAEL			LAOL			LWTS			LWPS			LFRA			LIFD			LHPS			LHTS			RSHO			RUPA			RAEL			RAOL			RWTS			RWPS			RFRA			RIFD			RHTS			RHPS			RBHD			LFHD			RFHD			LBHD			LHIP			RHIP			RASI			LASI			LKNE			LTHI			LANK			LTIP			LTOE			LMT1			LMT5			LHEE			RKNE			RTHI			RANK			RTIP			RTOE			RMT1			RMT5			RHEE			
		X1	Y1	Z1	X2	Y2	Z2	X3	Y3	Z3	X4	Y4	Z4	X5	Y5	Z5	X6	Y6	Z6	X7	Y7	Z7	X8	Y8	Z8	X9	Y9	Z9	X10	Y10	Z10	X11	Y11	Z11	X12	Y12	Z12	X13	Y13	Z13	X14	Y14	Z14	X15	Y15	Z15	X16	Y16	Z16	X17	Y17	Z17	X18	Y18	Z18	X19	Y19	Z19	X20	Y20	Z20	X21	Y21	Z21	X22	Y22	Z22	X23	Y23	Z23	X24	Y24	Z24	X25	Y25	Z25	X26	Y26	Z26	X27	Y27	Z27	X28	Y28	Z28	X29	Y29	Z29	X30	Y30	Z30	X31	Y31	Z31	X32	Y32	Z32	X33	Y33	Z33	X34	Y34	Z34	X35	Y35	Z35	X36	Y36	Z36	X37	Y37	Z37	X38	Y38	Z38	X39	Y39	Z39	X40	Y40	Z40	X41	Y41	Z41	X42	Y42	Z42	X43	Y43	Z43	X44	Y44	Z44	X45	Y45	Z45	X46	Y46	Z46	X47	Y47	Z47	X48	Y48	Z48	X49	Y49	Z49	X50	Y50	Z50	X51	Y51	Z51	X52	Y52	Z52	X53	Y53	Z53	

1	0	-38.00135040283203	1038.207153320312	1237.664794921875	-54.56769943237305	1034.710327148438	1062.398071289062	-41.22050094604492	1084.102416992188	1142.900268554688	200.0834503173828	1289.886840820312	1140.752075195312	-65.15512084960938	1217.796875	1137.437377929688	-15.42138004302979	1486.844848632812	1132.855834960938	166.829345703125	1403.55859375	1138.211669921875	-71.37086486816406	1345.6865234375	1209.512939453125	-34.1131706237793	1448.402221679688	1031.265502929688	71.61438751220703	1454.424682617188	960.2799072265625	64.0345458984375	1325.48291015625	883.5729370117188	97.10199737548828	1109.77001953125	874.3226928710938	26.75802803039551	1095.006225585938	953.6167602539062	188.8967132568359	874.9063720703125	953.8135986328125	138.3282165527344	861.5138549804688	887.815185546875	122.8291778564453	1001.641967773438	872.1768798828125	225.4356384277344	692.0092163085938	967.5864868164062	169.1488494873047	780.431396484375	899.1170654296875	210.234130859375	791.1653442382812	956.1828002929688	48.11461639404297	1453.083984375	1310.237548828125	39.63386154174805	1383.813842773438	1374.760620117188	19.78809356689453	1115.52099609375	1398.235717773438	36.01664352416992	1097.430297851562	1301.517944335938	168.4869232177734	868.5507202148438	1353.413696289062	98.09967803955078	850.5446166992188	1402.636474609375	35.32497024536133	1036.111938476562	1402.530639648438	172.8232421875	679.2391357421875	1331.555541992188	192.0609588623047	764.98974609375	1351.239501953125	134.85009765625	762.1941528320312	1402.86865234375	24.77860450744629	1664.989624023438	1065.452514648438	177.4952850341797	1706.432495117188	1212.196166992188	195.3628845214844	1711.201782226562	1087.3232421875	14.37597370147705	1653.020874023438	1202.394287109375	43.16324234008789	966.0737915039062	970.8754272460938	28.80994987487793	966.0485229492188	1314.528930664062	153.6954345703125	980.2426147460938	1289.12841796875	160.363037109375	973.6077270507812	1019.757080078125	76.69261932373047	499.5960388183594	1011.701538085938	55.87131881713867	642.575439453125	978.5233154296875	-22.63862037658691	52.13577270507812	998.5618286132812	15.1532621383667	268.4666442871094	990.1471557617188	181.7401733398438	43.67941665649414	982.4490356445312	138.5764312744141	39.72420883178711	1041.4609375	74.91799163818359	44.4251708984375	949.3546752929688	-68.02340698242188	47.34134292602539	1078.13232421875	76.1878662109375	518.36376953125	1294.400390625	99.19243621826172	791.5306396484375	1323.958618164062	-8.034711837768555	43.85832977294922	1292.699462890625	50.87409210205078	400.71533203125	1301.99951171875	209.6328125	42.21644973754883	1258.457885742188	149.7716674804688	48.34295654296875	1218.4599609375	116.9126892089844	47.12046813964844	1310.895629882812	-53.97689437866211	46.28004837036133	1234.706176757812	
2	0.01	-38.03818893432617	1038.194702148438	1237.700317382812	-54.53686141967773	1034.70068359375	1062.455932617188	-41.23946762084961	1084.08544921875	1142.93505859375	200.0401611328125	1289.919311523438	1140.80712890625	-65.1634521484375	1217.745239257812	1137.49951171875	-15.50221252441406	1486.813354492188	1132.893188476562	166.7239379882812	1403.571411132812	1138.280395507812	-71.41464233398438	1345.656494140625	1209.568237304688	-34.21682357788086	1448.369750976562	1031.302124023438	71.52178955078125	1454.419189453125	960.3136596679688	64.03369903564453	1325.451416015625	883.6454467773438	97.35901641845703	1109.697265625	874.6006469726562	26.99075889587402	1094.951171875	953.8723754882812	189.3068389892578	875.0955200195312	954.6000366210938	138.8719787597656	861.517333984375	888.5521240234375	123.1942520141602	1001.575988769531	872.6528930664062	226.2356414794922	692.3499145507812	968.6895141601562	169.7867126464844	780.4846801757812	900.0477294921875	210.7169952392578	791.4224853515625	957.1510620117188	48.01504135131836	1453.100219726562	1310.293090820312	39.5867919921875	1383.810180664062	1374.805786132812	19.88362121582031	1115.477783203125	1398.238525390625	36.02811050415039	1097.4521484375	1301.519409179688	168.6398162841797	868.584716796875	1353.208984375	98.34959411621094	850.5771484375	1402.489013671875	35.50173950195312	1036.054565429688	1402.497192382812	173.0755462646484	679.2939453125	1331.219360351562	192.1949005126953	765.0165405273438	1350.92431640625	135.1124572753906	762.1871948242188	1402.627685546875	24.3692741394043	1664.798461914062	1065.34130859375	176.8212127685547	1706.56591796875	1212.238891601562	194.8913116455078	1711.411010742188	1087.415893554688	13.91866779327393	1652.857177734375	1202.3564453125	43.1436767578125	966.0824584960938	970.890869140625	28.7906436920166	966.0265502929688	1314.557006835938	153.6829681396484	980.230712890625	1289.166015625	160.3420867919922	973.6110229492188	1019.804138183594	76.65373229980469	499.6024780273438	1011.719299316406	55.82745361328125	642.6024169921875	978.5195922851562	-22.64741706848145	52.13714981079102	998.5484008789062	15.13363456726074	268.4735412597656	990.15087890625	181.7401123046875	43.67886734008789	982.4476318359375	138.5765075683594	39.72799301147461	1041.464111328125	74.91661071777344	44.42738342285156	949.3526611328125	-68.02153778076172	47.33638763427734	1078.126586914062	76.12416076660156	518.3624877929688	1294.431762695312	99.21669006347656	791.4891967773438	1323.956176757812	-8.039154052734375	43.84048843383789	1292.713012695312	50.84649658203125	400.7170715332031	1302.025512695312	209.6335754394531	42.2232780456543	1258.459106445312	149.7663421630859	48.34004592895508	1218.468017578125	116.901496887207	47.12509918212891	1310.8955078125	-53.97336578369141	46.27183151245117	1234.705810546875	
3	0.02	-38.08848571777344	1038.176513671875	1237.743530273438	-54.50040054321289	1034.689453125	1062.525390625	-41.26313018798828	1084.059936523438	1142.976806640625	199.9835968017578	1289.959594726562	1140.8779296875	-65.17768096923828	1217.6767578125	1137.5751953125	-15.61412906646729	1486.769775390625	1132.943481445312	166.5896911621094	1403.587646484375	1138.362182617188	-71.47311401367188	1345.6171875	1209.634643554688	-34.35700988769531	1448.31982421875	1031.345581054688	71.39637756347656	1454.41015625	960.357177734375	64.02988433837891	1325.4072265625	883.7418212890625	97.65383911132812	1109.608276367188	874.939208984375	27.25770568847656	1094.87841796875	954.1759033203125	189.8211669921875	875.3312377929688	955.5663452148438	139.5450286865234	861.517578125	889.4580078125	123.6349029541016	1001.500549316406	873.2367553710938	227.1608123779297	692.7474975585938	970.0899047851562	170.5881500244141	780.5563354492188	901.1931762695312	211.3399047851562	791.7371215820312	958.34423828125	47.88864135742188	1453.115112304688	1310.356811523438	39.51741790771484	1383.8017578125	1374.864135742188	19.99523544311523	1115.423828125	1398.236450195312	36.04261016845703	1097.475830078125	1301.51953125	168.8325347900391	868.622802734375	1352.963623046875	98.65518188476562	850.6128540039062	1402.30078125	35.70919418334961	1035.979736328125	1402.451171875	173.3948974609375	679.3704833984375	1330.81884765625	192.4090423583984	765.0598754882812	1350.536987304688	135.4410705566406	762.185791015625	1402.349243164062	23.86311149597168	1664.579956054688	1065.221435546875	176.0083160400391	1706.736206054688	1212.296142578125	194.2985992431641	1711.658813476562	1087.525512695312	13.34310531616211	1652.6591796875	1202.306030273438	43.12588119506836	966.0916748046875	970.9158935546875	28.76548957824707	966.0009765625	1314.592407226562	153.6593170166016	980.2156982421875	1289.211059570312	160.3206787109375	973.6153564453125	1019.862854003906	76.60669708251953	499.6115417480469	1011.741577148438	55.77395629882812	642.6405029296875	978.5205078125	-22.65458488464355	52.13877487182617	998.538330078125	15.10888671875	268.4802551269531	990.1542358398438	181.7407379150391	43.67949676513672	982.4471435546875	138.5765228271484	39.73240280151367	1041.46484375	74.91569519042969	44.43072509765625	949.349609375	-68.02328491210938	47.33008575439453	1078.123168945312	76.04840087890625	518.3612060546875	1294.471557617188	99.26362609863281	791.4281005859375	1323.947021484375	-8.044417381286621	43.81642150878906	1292.72998046875	50.81414794921875	400.7191162109375	1302.05810546875	209.6334838867188	42.23128128051758	1258.460815429688	149.7620086669922	48.33815002441406	1218.4765625	116.8898391723633	47.12834167480469	1310.894897460938	-53.970458984375	46.25876235961914	1234.7080078125	
4	0.03	-38.14992523193359	1038.15380859375	1237.793334960938	-54.4615592956543	1034.677124023438	1062.601684570312	-41.29035568237305	1084.025024414062	1143.023193359375	199.9146728515625	1290.005981445312	1140.962158203125	-65.19965362548828	1217.59326171875	1137.659057617188	-15.75790500640869	1486.714233398438	1133.006103515625	166.4303741455078	1403.607177734375	1138.4521484375	-71.54544067382812	1345.569580078125	1209.709594726562	-34.53220367431641	1448.251098632812	1031.392456054688	71.23966979980469	1454.396484375	960.4094848632812	64.02206420898438	1325.349853515625	883.8599853515625	97.96225738525391	1109.507690429688	875.3187866210938	27.53261566162109	1094.791015625	954.5037841796875	190.4202728271484	875.6032104492188	956.6603393554688	140.3156890869141	861.5132446289062	890.4852905273438	124.1256637573242	1001.421203613281	873.89697265625	228.1308441162109	693.1683959960938	971.738525390625	171.5218658447266	780.645263671875	902.4932861328125	212.0898590087891	792.0928955078125	959.697509765625	47.73962020874023	1453.125244140625	1310.423706054688	39.42076873779297	1383.786254882812	1374.931030273438	20.11451148986816	1115.360961914062	1398.226928710938	36.05916976928711	1097.49853515625	1301.517456054688	169.0600280761719	868.661865234375	1352.693115234375	98.99905395507812	850.6463623046875	1402.081420898438	35.93053436279297	1035.890991210938	1402.39306640625	173.7633209228516	679.4688720703125	1330.387451171875	192.7017059326172	765.1214599609375	1350.106323242188	135.8210144042969	762.1903076171875	1402.05078125	23.28658103942871	1664.352905273438	1065.109375	175.1071319580078	1706.935668945312	1212.366333007812	193.6119689941406	1711.927001953125	1087.64453125	12.67318248748779	1652.43798828125	1202.2451171875	43.11415100097656	966.1004638671875	970.952392578125	28.73532295227051	965.9735717773438	1314.633422851562	153.6228485107422	980.1987915039062	1289.26171875	160.3010406494141	973.6209106445312	1019.930786132812	76.55404663085938	499.62255859375	1011.767211914062	55.71437072753906	642.6881713867188	978.5285034179688	-22.65998268127441	52.14052963256836	998.5322875976562	15.07919311523438	268.4861450195312	990.1566772460938	181.7423553466797	43.68178939819336	982.4478149414062	138.5764465332031	39.73697662353516	1041.462890625	74.91535186767578	44.43504333496094	949.3458862304688	-68.02907562255859	47.32253265380859	1078.122192382812	75.96569061279297	518.359619140625	1294.518188476562	99.33889770507812	791.346435546875	1323.927978515625	-8.05052375793457	43.78728485107422	1292.749267578125	50.77878952026367	400.7210388183594	1302.095458984375	209.6324310302734	42.23975372314453	1258.462768554688	149.7587127685547	48.33769226074219	1218.484741210938	116.8790054321289	47.12927627563477	1310.894165039062	-53.96833801269531	46.24086761474609	1234.713134765625	
